<svg width="512" height="512" viewBox="0 0 512 512" fill="none" xmlns="http://www.w3.org/2000/svg" role="img" aria-labelledby="title desc">
  <title id="title">VoxenSMP Legends RPG Emblem</title>
  <desc id="desc">Editable fantasy RPG emblem with sword, emerald crystal, crimson crown, and gold trim.</desc>
  <defs>
    <linearGradient id="gold" x1="108" y1="52" x2="410" y2="462" gradientUnits="userSpaceOnUse"><stop stop-color="#FFF4B0"/><stop offset=".45" stop-color="#D6A13A"/><stop offset="1" stop-color="#5A2D0C"/></linearGradient>
    <linearGradient id="emerald" x1="174" y1="94" x2="339" y2="425" gradientUnits="userSpaceOnUse"><stop stop-color="#D9FFE9"/><stop offset=".45" stop-color="#34D399"/><stop offset="1" stop-color="#064E3B"/></linearGradient>
    <linearGradient id="crimson" x1="91" y1="73" x2="427" y2="438" gradientUnits="userSpaceOnUse"><stop stop-color="#FCA5A5"/><stop offset=".45" stop-color="#991B1B"/><stop offset="1" stop-color="#220309"/></linearGradient>
    <filter id="glow" x="-30%" y="-30%" width="160%" height="160%" color-interpolation-filters="sRGB"><feGaussianBlur stdDeviation="13" result="b"/><feColorMatrix in="b" type="matrix" values="0 0 0 0 .95 0 0 0 0 .72 0 0 0 0 .26 0 0 0 .65 0"/><feBlend in="SourceGraphic" mode="screen"/></filter>
  </defs>
  <path d="M256 28 440 104v134c0 124-77 211-184 246C149 449 72 362 72 238V104L256 28Z" fill="#090606" stroke="url(#gold)" stroke-width="12"/>
  <path d="M256 54 414 119v116c0 104-62 177-158 210C160 412 98 339 98 235V119L256 54Z" fill="url(#crimson)" opacity=".22"/>
  <path d="M150 124 256 236l106-112 36 34-94 101 70 74-43 42-75-79-75 79-43-42 70-74-94-101 36-34Z" fill="#0B0A12" stroke="#FDE68A" stroke-width="9" stroke-linejoin="round" filter="url(#glow)"/>
  <path d="M256 88 330 194l-74 230-74-230 74-106Z" fill="url(#emerald)" stroke="#ECFCCB" stroke-width="8" stroke-linejoin="round"/>
  <path d="M256 88v336M183 194h146M211 194l45 230 45-230" stroke="#064E3B" stroke-width="5" opacity=".7"/>
  <path d="M155 88h202l-37 45-64-26-64 26-37-45Z" fill="url(#gold)" stroke="#FFF7ED" stroke-width="6" stroke-linejoin="round"/>
  <path d="M132 376h248l-32 49H164l-32-49Z" fill="#090606" stroke="url(#gold)" stroke-width="8" stroke-linejoin="round"/>
  <path d="M182 392h148" stroke="#34D399" stroke-width="8" stroke-linecap="round"/>
</svg>
